<?xml version="1.0" encoding="utf-8"?>
<!-- Generator: Adobe Illustrator 19.2.1, SVG Export Plug-In . SVG Version: 6.00 Build 0)  -->
<svg version="1.1" id="Cummins_C" xmlns="http://www.w3.org/2000/svg" xmlns:xlink="http://www.w3.org/1999/xlink" x="0px" y="0px"
	 viewBox="0 0 77.3 67.8" style="enable-background:new 0 0 77.3 67.8;" xml:space="preserve">
<style type="text/css">
	.st0{fill-rule:evenodd;clip-rule:evenodd;fill:#FFFFFF;}
</style>
<g>
	<path class="st0" d="M46.9,5.8l-2.5,1.7c0.6,0.7,0.8,1,1.2,1.6L49,14l2.5-1.7l-2.6-3.7c-0.1-0.1-1.1-1.3,0.1-2.2
		c0.8-0.5,1.4,0,1.9,0.7l2.7,3.8l2.5-1.7l-3-4.4c-1-1.4-2.7-1.6-4.1-0.7c-0.8,0.6-1.3,1.3-1.4,2.3L46.9,5.8z M42.8,7l-1.2-1.7
		L39.1,7l1.2,1.7L42.8,7z M48,14.6l-4.5-6.5l-2.5,1.7l4.5,6.5L48,14.6z M31.2,16.7l-2.4,1.7c0.5,0.7,0.8,1,1.2,1.6l3.4,4.8l2.5-1.7
		l-2.6-3.7c-0.1-0.1-1.1-1.3,0.1-2.2c0.8-0.5,1.4,0.1,1.9,0.7l2.7,3.8l2.5-1.7l-2.6-3.7c-0.1-0.1-1.1-1.3,0.1-2.2
		c0.8-0.5,1.4,0,1.9,0.7l2.7,3.8l2.5-1.7l-3-4.4c-1-1.4-2.7-1.6-4.1-0.7c-0.9,0.7-1.5,1.8-1.4,2.9c-0.8-0.6-2-0.4-2.8,0.2
		c-1,0.7-1.6,1.6-1.4,2.8l0,0L31.2,16.7z M18.9,25.2l-2.4,1.7c0.6,0.7,0.8,1,1.2,1.6l3.4,4.8l2.5-1.7L20.9,28
		c-0.1-0.1-1.1-1.3,0.1-2.2c0.8-0.5,1.4,0,1.9,0.7l2.7,3.8l2.5-1.7l-2.6-3.7c-0.1-0.1-1.1-1.3,0.1-2.2c0.8-0.5,1.4,0,1.9,0.7
		l2.7,3.8l2.5-1.7l-3-4.4c-1-1.4-2.7-1.6-4.1-0.7c-1,0.7-1.5,1.8-1.4,2.9c-0.8-0.6-2-0.4-2.8,0.2c-1,0.7-1.6,1.6-1.4,2.8l0,0
		L18.9,25.2z M17.9,35.6l2.5-1.7c-0.6-0.7-0.8-1-1.2-1.6l-3.4-4.8l-2.5,1.7l2.6,3.7c0.1,0.1,1.1,1.3-0.1,2.2c-0.8,0.5-1.4,0-1.9-0.7
		l-2.7-3.8l-2.5,1.7l3,4.4c1,1.4,2.7,1.6,4.1,0.7c0.8-0.6,1.3-1.3,1.4-2.3L17.9,35.6z M55,0c-0.2,0-0.5,0.1-0.6,0.2
		c-1.3,0.9-2.2,2.3-1.1,3.9c1.6,2.4,5-1,5.8,0.2c0.3,0.4,0.1,0.8-0.4,1.2c-0.2,0.2-0.5,0.2-0.8,0.1c-0.3-0.1-0.5-0.2-0.6-0.5L55,6.7
		c1.4,2,3.1,1.2,4.7,0.1c1.5-1,2.8-2.6,1.6-4.3c-0.7-1.1-1.6-1.2-2.6-0.9C57,2.2,56,2.9,55.7,2.4c-0.3-0.4-0.2-0.7,0.2-1
		c0.3-0.2,0.6-0.3,0.8-0.2c0.2,0.1,0.3,0.1,0.5,0.3L59.6,0H68v24.9H38.6c-4.1,0-10.2,1.9-10.2,9.1c0,6.8,6.2,8.7,10.2,8.7H68v25.2
		H35.7C17.9,67.8,0,55.9,0,33.9C0,11.8,18.6,0,35.7,0h19.1L55,0z M6.5,29.8L3.3,32c-2.3,1.6-3.5,4.8-1.4,7.8c2.1,3,5.4,3.1,7.8,1.4
		l3.2-2.2l-1.8-2.6l-3.1,2.1c-1.2,0.8-2.6,0.4-3.3-0.7c-0.7-1-0.6-2.5,0.5-3.3l3.1-2.1L6.5,29.8z"/>
	<path class="st0" d="M72.6,63.9v-1.6h1c0.5,0,1.1,0.2,1.1,0.8c0,0.8-0.7,0.8-1.3,0.8H72.6z M72.6,64.3h0.9l1.3,2h0.6l-1.3-2
		c0.6-0.1,1.1-0.5,1.1-1.3c0-0.8-0.4-1.2-1.5-1.2H72v4.5h0.6V64.3z M73.4,60.8c1.9,0,3.3,1.5,3.3,3.3c0,1.9-1.4,3.3-3.3,3.3
		c-1.9,0-3.3-1.5-3.3-3.3C70.1,62.2,71.5,60.8,73.4,60.8z M73.4,60.2c-2.2,0-3.9,1.7-3.9,3.9c0,2.2,1.7,3.9,3.9,3.9
		c2.2,0,3.9-1.7,3.9-3.9C77.3,61.9,75.6,60.2,73.4,60.2z"/>
</g>
</svg>
